<svg width="28" height="29" viewBox="0 0 28 29" fill="none" xmlns="http://www.w3.org/2000/svg">
<g clip-path="url(#clip0_293_6016)">
<path d="M20.6544 9.11886C20.5989 9.11907 20.5439 9.10792 20.4928 9.0861C20.4418 9.06428 20.3957 9.03225 20.3575 8.99199L14 2.32503L7.68473 8.94769C7.64798 8.9883 7.60346 9.02113 7.55382 9.04426C7.50417 9.06739 7.4504 9.08034 7.39567 9.08235C7.34094 9.08436 7.28636 9.07539 7.23515 9.05596C7.18394 9.03654 7.13714 9.00706 7.09751 8.96925C7.05788 8.93145 7.02622 8.88609 7.00441 8.83586C6.98259 8.78562 6.97105 8.73152 6.97048 8.67676C6.96991 8.62199 6.98031 8.56767 7.00107 8.51699C7.02183 8.46631 7.05254 8.4203 7.09137 8.38167L13.7031 1.4473C13.7414 1.40716 13.7875 1.37522 13.8386 1.35339C13.8896 1.33157 13.9445 1.32031 14 1.32031C14.0555 1.32031 14.1105 1.33157 14.1615 1.35339C14.2126 1.37522 14.2586 1.40716 14.297 1.4473L20.9514 8.42597C21.0067 8.4841 21.0437 8.55717 21.0579 8.63615C21.0721 8.71512 21.0628 8.79652 21.0312 8.87027C20.9996 8.94402 20.9471 9.00688 20.8801 9.05107C20.8131 9.09525 20.7347 9.11882 20.6544 9.11886Z" fill="#E8EDF2"/>
<path d="M14 3.09766C14.6041 3.09766 15.0938 2.60797 15.0938 2.00391C15.0938 1.39984 14.6041 0.910156 14 0.910156C13.3959 0.910156 12.9062 1.39984 12.9062 2.00391C12.9062 2.60797 13.3959 3.09766 14 3.09766Z" fill="#554E56"/>
<path d="M23.1055 9.16797V24.0506L19.0663 28.0898H5.71484C5.49728 28.0898 5.28863 28.0034 5.1348 27.8496C4.98096 27.6957 4.89453 27.4871 4.89453 27.2695V9.16797C4.89453 8.95041 4.98096 8.74176 5.1348 8.58792C5.28863 8.43408 5.49728 8.34766 5.71484 8.34766H22.2852C22.5027 8.34766 22.7114 8.43408 22.8652 8.58792C23.019 8.74176 23.1055 8.95041 23.1055 9.16797Z" fill="#F5F8F9"/>
<path d="M22.2851 8.34766H20.6444C20.862 8.34766 21.0707 8.43408 21.2245 8.58792C21.3783 8.74176 21.4648 8.95041 21.4648 9.16797V22.3055C21.4647 22.5602 21.3712 22.806 21.202 22.9962C21.0327 23.1864 20.7995 23.3079 20.5466 23.3375L19.3757 23.4737C19.0646 23.5099 18.7776 23.6591 18.5693 23.893C18.361 24.1269 18.2459 24.4292 18.2458 24.7424V28.0898H19.0662L23.1054 24.0506V9.16797C23.1054 8.95041 23.019 8.74176 22.8651 8.58792C22.7113 8.43408 22.5026 8.34766 22.2851 8.34766Z" fill="#D9E7EC"/>
<path d="M23.1055 9.16797V14.9102H4.89453V9.16797C4.89453 8.95041 4.98096 8.74176 5.1348 8.58792C5.28863 8.43408 5.49728 8.34766 5.71484 8.34766H22.2852C22.5027 8.34766 22.7114 8.43408 22.8652 8.58792C23.019 8.74176 23.1055 8.95041 23.1055 9.16797Z" fill="#FD4755"/>
<path d="M22.2852 8.34766H20.6445C20.8621 8.34766 21.0707 8.43408 21.2246 8.58792C21.3784 8.74176 21.4648 8.95041 21.4648 9.16797V14.9102H23.1055V9.16797C23.1055 8.95041 23.019 8.74176 22.8652 8.58792C22.7114 8.43408 22.5027 8.34766 22.2852 8.34766Z" fill="#FB2B3A"/>
<path d="M19.0662 28.09V24.8711C19.0662 24.6535 19.1526 24.4449 19.3064 24.291C19.4603 24.1372 19.6689 24.0508 19.8865 24.0508H23.1054L19.0662 28.09Z" fill="#CECECE"/>
<path d="M9.51063 10.1562C10.0498 10.1562 10.5934 10.4959 10.5934 11.1187C10.5934 12.1272 9.15734 12.4575 9.15734 12.8802V12.9223H10.3752C10.4912 12.9223 10.594 13.0667 10.594 13.2341C10.594 13.4014 10.4917 13.5545 10.3752 13.5545H8.72039C8.59024 13.5545 8.4043 13.4665 8.4043 13.3314V12.8802C8.4043 12.1507 9.86828 11.7318 9.86828 11.1417C9.86828 10.993 9.77531 10.8136 9.515 10.8136C9.32906 10.8136 9.16664 10.9066 9.16664 11.162C9.16664 11.297 9.02227 11.4272 8.78383 11.4272C8.59789 11.4272 8.4557 11.3435 8.4557 11.0504C8.46008 10.4816 8.9807 10.1562 9.51063 10.1562ZM11.5324 12.4854V11.2533C11.5324 10.4537 12.0301 10.1562 12.6716 10.1562C13.313 10.1562 13.8151 10.4537 13.8151 11.2533V12.4854C13.8151 13.2849 13.313 13.5824 12.6716 13.5824C12.0301 13.5824 11.5324 13.2849 11.5324 12.4854ZM13.0899 11.2533C13.0899 10.9328 12.9319 10.7884 12.6716 10.7884C12.4113 10.7884 12.2576 10.9328 12.2576 11.2533V12.4854C12.2576 12.8059 12.4113 12.9502 12.6716 12.9502C12.9319 12.9502 13.0899 12.8059 13.0899 12.4854V11.2533ZM15.8593 10.1562C16.3985 10.1562 16.9421 10.4959 16.9421 11.1187C16.9421 12.1272 15.506 12.4575 15.506 12.8802V12.9223H16.7239C16.8398 12.9223 16.9427 13.0667 16.9427 13.2341C16.9427 13.4014 16.8404 13.5545 16.7239 13.5545H15.0702C14.94 13.5545 14.7541 13.4665 14.7541 13.3314V12.8802C14.7541 12.1507 16.218 11.7318 16.218 11.1417C16.218 10.993 16.1251 10.8136 15.8648 10.8136C15.6788 10.8136 15.5164 10.9066 15.5164 11.162C15.5164 11.297 15.372 11.4272 15.1336 11.4272C14.9477 11.4272 14.8082 11.3435 14.8082 11.0504C14.8098 10.4816 15.3305 10.1562 15.8593 10.1562ZM17.8827 12.4854V11.2533C17.8827 10.4537 18.3804 10.1562 19.0219 10.1562C19.6634 10.1562 20.1654 10.4537 20.1654 11.2533V12.4854C20.1654 13.2849 19.6634 13.5824 19.0219 13.5824C18.3804 13.5824 17.8827 13.2849 17.8827 12.4854ZM19.4402 11.2533C19.4402 10.9328 19.2822 10.7884 19.0219 10.7884C18.7616 10.7884 18.6079 10.9328 18.6079 11.2533V12.4854C18.6079 12.8059 18.7616 12.9502 19.0219 12.9502C19.2822 12.9502 19.4402 12.8059 19.4402 12.4854V11.2533Z" fill="#F5F8F9"/>
<path d="M7.62891 18.7383C8.23297 18.7383 8.72266 18.2486 8.72266 17.6445C8.72266 17.0405 8.23297 16.5508 7.62891 16.5508C7.02484 16.5508 6.53516 17.0405 6.53516 17.6445C6.53516 18.2486 7.02484 18.7383 7.62891 18.7383Z" fill="#B6C4CF"/>
<path d="M11.8765 18.7383C12.4805 18.7383 12.9702 18.2486 12.9702 17.6445C12.9702 17.0405 12.4805 16.5508 11.8765 16.5508C11.2724 16.5508 10.7827 17.0405 10.7827 17.6445C10.7827 18.2486 11.2724 18.7383 11.8765 18.7383Z" fill="#B6C4CF"/>
<path d="M16.1235 18.7383C16.7276 18.7383 17.2173 18.2486 17.2173 17.6445C17.2173 17.0405 16.7276 16.5508 16.1235 16.5508C15.5195 16.5508 15.0298 17.0405 15.0298 17.6445C15.0298 18.2486 15.5195 18.7383 16.1235 18.7383Z" fill="#B6C4CF"/>
<path d="M20.3711 18.7383C20.9752 18.7383 21.4648 18.2486 21.4648 17.6445C21.4648 17.0405 20.9752 16.5508 20.3711 16.5508C19.767 16.5508 19.2773 17.0405 19.2773 17.6445C19.2773 18.2486 19.767 18.7383 20.3711 18.7383Z" fill="#B6C4CF"/>
<path d="M7.62891 22.5664C8.23297 22.5664 8.72266 22.0767 8.72266 21.4727C8.72266 20.8686 8.23297 20.3789 7.62891 20.3789C7.02484 20.3789 6.53516 20.8686 6.53516 21.4727C6.53516 22.0767 7.02484 22.5664 7.62891 22.5664Z" fill="#B6C4CF"/>
<path d="M11.8765 22.5664C12.4805 22.5664 12.9702 22.0767 12.9702 21.4727C12.9702 20.8686 12.4805 20.3789 11.8765 20.3789C11.2724 20.3789 10.7827 20.8686 10.7827 21.4727C10.7827 22.0767 11.2724 22.5664 11.8765 22.5664Z" fill="#B6C4CF"/>
<path d="M16.1235 22.5664C16.7276 22.5664 17.2173 22.0767 17.2173 21.4727C17.2173 20.8686 16.7276 20.3789 16.1235 20.3789C15.5195 20.3789 15.0298 20.8686 15.0298 21.4727C15.0298 22.0767 15.5195 22.5664 16.1235 22.5664Z" fill="#FD4755"/>
<path d="M20.3711 22.5664C20.9752 22.5664 21.4648 22.0767 21.4648 21.4727C21.4648 20.8686 20.9752 20.3789 20.3711 20.3789C19.767 20.3789 19.2773 20.8686 19.2773 21.4727C19.2773 22.0767 19.767 22.5664 20.3711 22.5664Z" fill="#B6C4CF"/>
<path d="M7.62891 26.3945C8.23297 26.3945 8.72266 25.9048 8.72266 25.3008C8.72266 24.6967 8.23297 24.207 7.62891 24.207C7.02484 24.207 6.53516 24.6967 6.53516 25.3008C6.53516 25.9048 7.02484 26.3945 7.62891 26.3945Z" fill="#B6C4CF"/>
<path d="M11.8765 26.3945C12.4805 26.3945 12.9702 25.9048 12.9702 25.3008C12.9702 24.6967 12.4805 24.207 11.8765 24.207C11.2724 24.207 10.7827 24.6967 10.7827 25.3008C10.7827 25.9048 11.2724 26.3945 11.8765 26.3945Z" fill="#B6C4CF"/>
<path d="M16.1235 26.3945C16.7276 26.3945 17.2173 25.9048 17.2173 25.3008C17.2173 24.6967 16.7276 24.207 16.1235 24.207C15.5195 24.207 15.0298 24.6967 15.0298 25.3008C15.0298 25.9048 15.5195 26.3945 16.1235 26.3945Z" fill="#B6C4CF"/>
</g>
<defs>
<clipPath id="clip0_293_6016">
<rect width="28" height="28" fill="white" transform="translate(0 0.5)"/>
</clipPath>
</defs>
</svg>
