<svg width="19" height="19" viewBox="0 0 19 19" fill="none" xmlns="http://www.w3.org/2000/svg">
<path d="M17.7457 0.328512C17.3552 -0.0620185 16.722 -0.0620185 16.3315 0.328512L9.0371 7.6229L1.74275 0.328512C1.35223 -0.0620185 0.719062 -0.0620185 0.328542 0.328512C-0.061988 0.719032 -0.061988 1.3522 0.328542 1.74272L7.6229 9.0371L0.328562 16.3314C-0.0619679 16.722 -0.0619679 17.3551 0.328562 17.7457C0.719082 18.1362 1.35225 18.1362 1.74277 17.7457L9.0371 10.4513L16.3315 17.7457C16.722 18.1362 17.3552 18.1362 17.7457 17.7457C18.1362 17.3551 18.1362 16.722 17.7457 16.3315L10.4513 9.0371L17.7457 1.74272C18.1362 1.3522 18.1362 0.719032 17.7457 0.328512Z" fill="#5C5D5F"/>
</svg>
