<svg width="28" height="29" viewBox="0 0 28 29" fill="none" xmlns="http://www.w3.org/2000/svg">
<path fill-rule="evenodd" clip-rule="evenodd" d="M20.247 26.4373C17.8902 25.8468 13.0655 24.1821 8.69147 19.8082C4.31751 15.4342 2.65285 10.6095 2.06237 8.25269C1.72303 6.89829 2.33409 5.59133 3.37022 4.85124L6.08651 2.91102C7.67584 1.7758 9.88679 2.16102 10.9985 3.76687L12.7086 6.23699C13.4345 7.28552 13.1841 8.72262 12.1464 9.46386L10.7828 10.4378C10.9892 11.2272 11.631 12.8483 13.6412 14.8585C15.6514 16.8686 17.2725 17.5104 18.0618 17.7168L19.0358 16.3532C19.7771 15.3156 21.2142 15.0651 22.2626 15.791L24.7328 17.5011C26.3386 18.6129 26.7239 20.8238 25.5886 22.4131L23.6484 25.1295C22.9083 26.1656 21.6014 26.7767 20.247 26.4373ZM10.3414 18.1583C14.319 22.1359 18.7085 23.6464 20.814 24.174C21.1218 24.251 21.4938 24.1314 21.7497 23.7732L23.6899 21.0569C24.0683 20.5272 23.94 19.7902 23.4046 19.4196L20.9345 17.7095L19.8893 19.1728C19.4622 19.7708 18.6722 20.2398 17.7524 20.0414C16.6044 19.7937 14.4823 18.9993 11.9913 16.5084C9.50037 14.0174 8.70597 11.8953 8.45826 10.7473C8.25981 9.82745 8.72886 9.03752 9.32687 8.61036L10.7902 7.56515L9.08007 5.09502C8.70949 4.55973 7.97251 4.43133 7.44274 4.80974L4.72645 6.74995C4.36824 7.00581 4.24864 7.37786 4.32575 7.68561C4.85329 9.79115 6.36377 14.1806 10.3414 18.1583Z" fill="#050505"/>
</svg>
