<svg width="32" height="32" viewBox="0 0 32 32" fill="none" xmlns="http://www.w3.org/2000/svg">
<path fill-rule="evenodd" clip-rule="evenodd" d="M16 0.368652C11.6533 0.368652 11.112 0.386582 9.40267 0.463426C3.58933 0.71957 0.362667 3.81635 0.096 9.40029C0.0186667 11.0422 0 11.5647 0 15.7373C0 19.9124 0.0186667 20.435 0.096 22.0743C0.362667 27.6557 3.58933 30.7576 9.40267 31.0137C11.112 31.088 11.6533 31.1059 16 31.1059C20.3467 31.1059 20.8907 31.088 22.6 31.0137C28.4027 30.7576 31.6427 27.6608 31.904 22.0743C31.9813 20.435 32 19.9124 32 15.7373C32 11.5647 31.9813 11.0422 31.904 9.40029C31.6427 3.82404 28.4133 0.717008 22.6 0.463426C20.8907 0.386582 20.3467 0.368652 16 0.368652ZM15.9981 3.14114C20.2701 3.14114 20.7768 3.15651 22.4648 3.23079C26.8035 3.42034 28.8248 5.39521 29.0248 9.52937C29.0995 11.1508 29.1155 11.6349 29.1155 15.7383C29.1155 19.8417 29.0995 20.3284 29.0248 21.9472C28.8248 26.0788 26.8061 28.0588 22.4648 28.2484C20.7768 28.3201 20.2728 28.338 15.9981 28.338C11.7261 28.338 11.2195 28.3227 9.53415 28.2484C5.18748 28.0563 3.17415 26.0737 2.97415 21.9472C2.89948 20.3284 2.88081 19.8417 2.88081 15.7383C2.88081 11.6349 2.89948 11.1482 2.97415 9.52937C3.17148 5.39265 5.19281 3.41778 9.53415 3.22823C11.2195 3.15395 11.7261 3.14114 15.9981 3.14114ZM7.78366 15.7377C7.78366 11.3781 11.4637 7.84588 15.9997 7.84588C20.5357 7.84588 24.2157 11.3807 24.2157 15.7377C24.2157 20.0972 20.5357 23.6295 15.9997 23.6295C11.4637 23.6295 7.78366 20.0972 7.78366 15.7377ZM15.9978 20.8602C13.0511 20.8602 10.6645 18.5677 10.6645 15.7373C10.6645 12.9095 13.0511 10.6145 15.9978 10.6145C18.9418 10.6145 21.3338 12.907 21.3338 15.7373C21.3338 18.5677 18.9418 20.8602 15.9978 20.8602ZM22.6171 7.53537C22.6171 6.51591 23.4784 5.69113 24.5371 5.69113C25.6011 5.69113 26.4598 6.51591 26.4598 7.53537C26.4598 8.55482 25.5984 9.3796 24.5371 9.3796C23.4758 9.3796 22.6171 8.55226 22.6171 7.53537Z" fill="white"/>
</svg>
