<svg width="36" height="30" viewBox="0 0 36 30" fill="none" xmlns="http://www.w3.org/2000/svg">
<path d="M34.7234 9.47812C34.9513 9.47828 35.1698 9.56888 35.3309 9.73001C35.4921 9.89113 35.5827 10.1096 35.5828 10.3375C35.5828 10.5656 35.4922 10.7844 35.3305 10.9453C35.1694 11.1063 34.9511 11.1967 34.7234 11.1969H1.27657C1.04889 11.1967 0.830565 11.1063 0.669534 10.9453C0.589508 10.8656 0.526018 10.7709 0.482713 10.6666C0.439408 10.5623 0.417141 10.4504 0.417191 10.3375C0.417356 10.1096 0.50795 9.89113 0.669079 9.73001C0.830207 9.56888 1.0487 9.47828 1.27657 9.47812H34.7234ZM34.7234 0.1539C34.9511 0.154032 35.1694 0.244507 35.3305 0.405463C35.4922 0.5664 35.5828 0.78515 35.5828 1.01328C35.5827 1.24114 35.4921 1.45963 35.3309 1.62076C35.1698 1.78189 34.9513 1.87248 34.7234 1.87265H1.27657C1.0487 1.87248 0.830207 1.78189 0.669079 1.62076C0.50795 1.45963 0.417356 1.24114 0.417191 1.01328C0.417191 0.78515 0.507815 0.5664 0.669534 0.405463C0.830565 0.244507 1.04889 0.154032 1.27657 0.1539H34.7234ZM34.7234 18.8031C34.9511 18.8032 35.1694 18.8937 35.3305 19.0547C35.4922 19.2156 35.5828 19.4344 35.5828 19.6625C35.5827 19.8904 35.4921 20.1089 35.3309 20.27C35.1698 20.4311 34.9513 20.5217 34.7234 20.5219H1.27657C1.0487 20.5217 0.830207 20.4311 0.669079 20.27C0.50795 20.1089 0.417356 19.8904 0.417191 19.6625C0.417191 19.4344 0.507815 19.2156 0.669534 19.0547C0.830565 18.8937 1.04889 18.8032 1.27657 18.8031H34.7234ZM34.7234 28.1273C34.9513 28.1275 35.1698 28.2181 35.3309 28.3792C35.4921 28.5404 35.5827 28.7588 35.5828 28.9867C35.5828 29.2148 35.4922 29.4336 35.3305 29.5945C35.1694 29.7555 34.9511 29.846 34.7234 29.8461H1.27657C1.04889 29.846 0.830565 29.7555 0.669534 29.5945C0.589508 29.5148 0.526018 29.4201 0.482713 29.3158C0.439408 29.2115 0.417141 29.0997 0.417191 28.9867C0.417356 28.7588 0.50795 28.5404 0.669079 28.3792C0.830207 28.2181 1.0487 28.1275 1.27657 28.1273H34.7234Z" fill="#5C5D5F"/>
</svg>
