<svg width="28" height="32" viewBox="0 0 28 32" fill="none" xmlns="http://www.w3.org/2000/svg">
<path d="M19.4093 21.4002V9.75253C21.652 11.3624 24.4048 12.3142 27.3742 12.3142V7.86415C25.6575 7.50048 24.1498 6.57173 23.0363 5.29468C21.2423 4.12611 19.9507 2.25318 19.5408 0.0706787H15.3497L15.3418 23.0332C15.2492 25.6027 13.1303 27.6692 10.5399 27.6692C8.9314 27.6692 7.51628 26.872 6.63475 25.6647C5.10365 24.852 4.052 23.25 4.052 21.4002C4.052 18.7457 6.20945 16.5863 8.8618 16.5863C9.3567 16.5863 9.83613 16.6715 10.2846 16.8108V12.322C4.5933 12.4458 0 17.1203 0 22.8552C0 25.6258 1.07487 28.149 2.8302 30.0373C4.53917 31.237 6.62702 31.949 8.86953 31.949C14.6768 31.949 19.4093 27.2125 19.4093 21.4002Z" fill="white"/>
</svg>
