<svg width="54" height="50" viewBox="0 0 54 50" fill="none" xmlns="http://www.w3.org/2000/svg">
<path fill-rule="evenodd" clip-rule="evenodd" d="M36.6417 -1.55773C40.6477 -2.78183 44.8249 -0.236858 45.5744 3.88454L46.3511 8.15725C49.1473 9.07492 51.1667 11.7065 51.1667 14.8097V21.2588C52.5986 22.5405 53.5 24.4032 53.5 26.4763V31.143C53.5 33.2162 52.5986 35.0789 51.1667 36.3606V42.8097C51.1667 46.6758 48.0327 49.8097 44.1667 49.8097H6.83333C2.96742 49.8097 -0.166668 46.6758 -0.166668 42.8097V14.8097C-0.166668 11.3402 2.35747 8.4603 5.66942 7.906L36.6417 -1.55773ZM46.5 33.4763C47.7887 33.4763 48.8333 32.4317 48.8333 31.143V26.4763C48.8333 25.1876 47.7887 24.143 46.5 24.143H39.5C38.2113 24.143 37.1667 25.1876 37.1667 26.4763V31.143C37.1667 32.4317 38.2113 33.4763 39.5 33.4763H46.5ZM46.5 38.143V42.8097C46.5 44.0984 45.4553 45.143 44.1667 45.143H6.83333C5.54471 45.143 4.5 44.0984 4.5 42.8097V14.8097C4.5 13.521 5.54471 12.4763 6.83333 12.4763H44.1667C45.45 12.4763 46.4911 13.5123 46.5 14.7934V19.4763H39.5C35.634 19.4763 32.5 22.6103 32.5 26.4763V31.143C32.5 35.0091 35.634 38.143 39.5 38.143H46.5ZM41.1226 4.55946L41.6961 7.80968H20.8333L38.1541 2.73003C39.4918 2.32877 40.8799 3.18429 41.1226 4.55946Z" fill="#AABED1"/>
</svg>
