<svg width="38" height="27" viewBox="0 0 38 27" fill="none" xmlns="http://www.w3.org/2000/svg">
<path fill-rule="evenodd" clip-rule="evenodd" d="M19.0853 0.612427C20.1506 0.614285 30.8724 0.651452 33.6493 1.3948C35.2637 1.82329 36.5331 3.09015 36.9662 4.71098C37.7186 7.51893 37.7487 13.2457 37.7499 13.6994V13.7568C37.7487 14.2118 37.7186 19.9557 36.9662 22.7637C36.5331 24.3845 35.2637 25.6514 33.6493 26.0799C30.7847 26.8467 19.4655 26.862 19.0139 26.8623H18.986C18.5343 26.862 7.21332 26.8467 4.34682 26.0799C2.73432 25.6514 1.46307 24.3845 1.03182 22.7637C0.281225 19.9557 0.251201 14.2118 0.25 13.7568V13.6994C0.251201 13.2457 0.281225 7.51893 1.03182 4.71098C1.46307 3.09015 2.73432 1.82329 4.34682 1.3948C7.12557 0.651452 17.8491 0.614285 18.9146 0.612427H19.0853ZM15.1637 8.19483V19.2798L24.9662 13.728L15.1637 8.19483Z" fill="white"/>
</svg>
